<svg width="33" height="34" viewBox="0 0 33 34" fill="none" xmlns="http://www.w3.org/2000/svg">
<g id="&#240;&#159;&#166;&#134; icon &#34;shopping cart&#34;">
<g id="Group">
<path id="Vector" d="M1.41791 1.68185H4.0936C5.75437 1.68185 7.06143 3.11437 6.92304 4.76253L5.64671 20.1043C5.43142 22.615 7.4151 24.7715 9.937 24.7715H26.314C28.5284 24.7715 30.4659 22.9539 30.6351 20.7512L31.4655 9.1987C31.65 6.64174 29.7124 4.56229 27.1444 4.56229H7.29211" stroke="#292D32" stroke-width="2" stroke-miterlimit="10" stroke-linecap="round" stroke-linejoin="round"/>
<path id="Vector_2" d="M23.3309 32.4886C24.3925 32.4886 25.2531 31.6267 25.2531 30.5632C25.2531 29.4998 24.3925 28.6378 23.3309 28.6378C22.2692 28.6378 21.4087 29.4998 21.4087 30.5632C21.4087 31.6267 22.2692 32.4886 23.3309 32.4886Z" stroke="#292D32" stroke-width="2" stroke-miterlimit="10" stroke-linecap="round" stroke-linejoin="round"/>
<path id="Vector_3" d="M11.0289 32.4886C12.0905 32.4886 12.9511 31.6267 12.9511 30.5632C12.9511 29.4998 12.0905 28.6378 11.0289 28.6378C9.96727 28.6378 9.10669 29.4998 9.10669 30.5632C9.10669 31.6267 9.96727 32.4886 11.0289 32.4886Z" stroke="#292D32" stroke-width="2" stroke-miterlimit="10" stroke-linecap="round" stroke-linejoin="round"/>
<path id="Vector_4" d="M12.1822 10.9239H30.6351" stroke="#292D32" stroke-width="2" stroke-miterlimit="10" stroke-linecap="round" stroke-linejoin="round"/>
</g>
</g>
</svg>
