<svg width="30" height="29" viewBox="0 0 30 29" fill="none" xmlns="http://www.w3.org/2000/svg">
<g id="&#240;&#159;&#166;&#134; icon &#34;search normal 1&#34;">
<g id="Group">
<path id="Vector" d="M14.493 27.652C6.87163 27.652 0.666626 21.447 0.666626 13.8256C0.666626 6.20424 6.87163 -0.000762939 14.493 -0.000762939C22.1144 -0.000762939 28.3194 6.20424 28.3194 13.8256C28.3194 21.447 22.1144 27.652 14.493 27.652ZM14.493 2.02261C7.97774 2.02261 2.69 7.32384 2.69 13.8256C2.69 20.3274 7.97774 25.6286 14.493 25.6286C21.0083 25.6286 26.296 20.3274 26.296 13.8256C26.296 7.32384 21.0083 2.02261 14.493 2.02261Z" fill="#292D32"/>
<path id="Vector_2" d="M28.6572 29.0008C28.4009 29.0008 28.1446 28.9063 27.9423 28.704L25.2444 26.0062C24.8532 25.615 24.8532 24.9675 25.2444 24.5763C25.6356 24.1851 26.2831 24.1851 26.6743 24.5763L29.3721 27.2741C29.7633 27.6653 29.7633 28.3128 29.3721 28.704C29.1698 28.9063 28.9135 29.0008 28.6572 29.0008Z" fill="#292D32"/>
</g>
</g>
</svg>
